<svg width="273" height="314" viewBox="0 0 273 314" fill="none" xmlns="http://www.w3.org/2000/svg">
<g clip-path="url(#clip0)">
<path d="M251.63 224.89C247.88 232.33 243.49 238.53 238.63 242.99C237.239 244.272 235.744 245.436 234.16 246.47C232.741 247.394 231.242 248.187 229.68 248.84C207.33 258.08 184.44 237.06 158.88 239.54C137.45 241.63 122.03 253.54 108.36 263.54C103.866 266.952 99.1597 270.075 94.27 272.89C92.98 273.61 91.68 274.27 90.39 274.89C88.9372 275.545 87.4519 276.126 85.94 276.63C66.13 283.42 32.68 283.18 17.86 268.56C2.32 253.21 -16.53 203.6 26.16 139.69C73.59 68.69 203.16 58.83 237.81 82.33C273.64 106.61 272.2 184.07 251.63 224.89Z" fill="#E5F6FF"/>
<path d="M162.09 226.35C159.387 224.203 156.225 222.707 152.85 221.98C152.313 221.832 151.751 221.798 151.2 221.88C150.688 222.041 150.224 222.328 149.85 222.714C149.476 223.1 149.205 223.573 149.06 224.09C148.671 225.348 148.667 226.693 149.048 227.952C149.43 229.212 150.179 230.329 151.2 231.16C152.245 231.962 153.467 232.501 154.764 232.731C156.06 232.96 157.393 232.874 158.65 232.48C160.061 232.123 161.276 231.225 162.03 229.98C162.382 229.349 162.503 228.615 162.371 227.905C162.24 227.195 161.864 226.553 161.31 226.09C161.206 226.129 161.114 226.193 161.041 226.276C160.968 226.36 160.917 226.46 160.892 226.568C160.867 226.676 160.869 226.788 160.899 226.895C160.928 227.002 160.984 227.1 161.06 227.18L162.09 226.35Z" fill="white"/>
<path d="M151.63 228.09C151.453 227.405 151.106 226.775 150.619 226.261C150.133 225.747 149.524 225.365 148.85 225.15C148.331 225.615 147.931 226.197 147.683 226.847C147.434 227.497 147.344 228.198 147.42 228.89C147.531 229.577 147.908 230.193 148.469 230.605C149.03 231.017 149.731 231.191 150.42 231.09C151.78 230.73 152.31 228.57 151.11 227.84L151.63 228.09Z" fill="white"/>
<path d="M140.36 222.43C140.477 222.124 140.522 221.795 140.491 221.469C140.46 221.143 140.353 220.828 140.18 220.55C139.91 220.663 139.667 220.833 139.47 221.05C139.369 221.158 139.303 221.293 139.278 221.439C139.253 221.585 139.271 221.735 139.33 221.87C139.53 222.22 140.01 222.25 140.41 222.24L140.18 222.48L140.36 222.43Z" fill="white"/>
<path d="M142.86 223.12C143.05 223.178 143.215 223.298 143.33 223.46C143.089 223.541 142.832 223.565 142.58 223.528C142.328 223.492 142.088 223.396 141.88 223.25C141.63 223.12 141.34 222.92 141.37 222.64C141.4 222.36 141.56 222.3 141.65 222.12C141.83 221.77 141.73 221.21 142.11 221.12C142.22 221.097 142.334 221.112 142.435 221.163C142.535 221.213 142.614 221.297 142.66 221.4C142.744 221.609 142.778 221.835 142.76 222.06V223.52L142.86 223.12Z" fill="white"/>
<path opacity="0.5" d="M111.82 211.58C111.65 211.21 111 211.44 110.93 211.84C110.921 212.046 110.956 212.251 111.031 212.442C111.107 212.633 111.223 212.806 111.37 212.95C111.616 212.807 111.814 212.593 111.937 212.336C112.06 212.079 112.103 211.792 112.06 211.51L111.82 211.58Z" fill="white"/>
<path d="M105.15 224.64C105.171 224.735 105.153 224.835 105.101 224.918C105.048 225 104.965 225.058 104.87 225.08C104.775 225.099 104.677 225.098 104.582 225.078C104.488 225.057 104.398 225.017 104.32 224.96C104.224 224.901 104.145 224.818 104.09 224.72C104.062 224.661 104.047 224.596 104.045 224.53C104.043 224.465 104.055 224.4 104.079 224.339C104.104 224.278 104.14 224.223 104.187 224.176C104.233 224.13 104.289 224.094 104.35 224.07C104.475 224.03 104.61 224.039 104.729 224.095C104.847 224.15 104.941 224.249 104.99 224.37C105.031 224.496 105.027 224.632 104.977 224.754C104.928 224.877 104.837 224.978 104.72 225.04L105.15 224.64Z" fill="white"/>
<path d="M134.93 225.3C135.029 225.295 135.125 225.264 135.209 225.211C135.293 225.158 135.361 225.084 135.409 224.997C135.456 224.909 135.48 224.811 135.478 224.712C135.477 224.613 135.45 224.516 135.4 224.43C135.185 224.421 134.973 224.477 134.79 224.59C134.703 224.653 134.638 224.742 134.605 224.845C134.573 224.948 134.575 225.058 134.61 225.16C134.634 225.207 134.668 225.247 134.711 225.277C134.754 225.308 134.803 225.328 134.854 225.336C134.906 225.344 134.959 225.339 135.009 225.322C135.058 225.306 135.103 225.277 135.14 225.24L134.93 225.3Z" fill="white"/>
<path d="M144.14 224.67C144.295 224.477 144.405 224.253 144.462 224.012C144.519 223.772 144.522 223.522 144.47 223.28L143.31 223.65C143.124 223.692 142.954 223.785 142.82 223.92C142.757 223.995 142.712 224.084 142.688 224.18C142.664 224.275 142.662 224.375 142.682 224.471C142.702 224.567 142.744 224.658 142.804 224.736C142.865 224.813 142.942 224.876 143.03 224.92C143.197 224.992 143.381 225.012 143.559 224.978C143.737 224.944 143.901 224.858 144.03 224.73L144.14 224.67Z" fill="white"/>
<path opacity="0.5" d="M110.65 223.42L110.25 223.52C110.228 223.631 110.243 223.747 110.294 223.848C110.345 223.949 110.428 224.031 110.53 224.08C110.582 224.099 110.638 224.107 110.694 224.104C110.75 224.101 110.804 224.087 110.855 224.063C110.905 224.039 110.95 224.005 110.987 223.963C111.024 223.922 111.052 223.873 111.07 223.82C111.081 223.766 111.08 223.71 111.065 223.657C111.051 223.603 111.024 223.554 110.987 223.513C110.95 223.472 110.904 223.441 110.852 223.421C110.8 223.401 110.745 223.394 110.69 223.4L110.65 223.42Z" fill="white"/>
<path d="M137.82 224.55C137.72 224.8 138.05 225.03 138.31 225.01C138.57 224.99 138.81 224.82 139.07 224.77C139.206 224.74 139.347 224.741 139.482 224.774C139.617 224.807 139.743 224.871 139.85 224.96C139.917 225.005 139.972 225.066 140.009 225.137C140.045 225.209 140.063 225.289 140.06 225.37C140.031 225.475 139.972 225.568 139.89 225.64C139.556 226.05 139.117 226.361 138.62 226.54C138.369 226.625 138.099 226.634 137.843 226.567C137.587 226.499 137.356 226.358 137.18 226.16C137.079 226.016 137.014 225.85 136.991 225.676C136.968 225.502 136.989 225.325 137.05 225.16C137.12 224.988 137.237 224.839 137.387 224.729C137.537 224.62 137.715 224.554 137.9 224.54L137.82 224.55Z" fill="white"/>
<path d="M141.84 218.66C141.924 218.517 141.95 218.347 141.913 218.185C141.876 218.023 141.778 217.882 141.64 217.79C141.496 217.705 141.332 217.66 141.165 217.66C140.998 217.66 140.834 217.705 140.69 217.79C140.56 217.86 140.44 217.99 140.49 218.13C140.511 218.177 140.542 218.217 140.582 218.249C140.623 218.28 140.67 218.301 140.72 218.31L141.86 218.78L141.84 218.66Z" fill="white"/>
<path d="M126.67 214.74C126.641 214.904 126.575 215.06 126.476 215.194C126.378 215.329 126.249 215.439 126.102 215.516C125.954 215.593 125.79 215.636 125.624 215.64C125.457 215.644 125.291 215.61 125.14 215.54C125.218 215.019 125.448 214.532 125.8 214.14C125.891 214.048 126.001 213.976 126.122 213.928C126.242 213.881 126.371 213.858 126.501 213.863C126.631 213.868 126.758 213.899 126.875 213.955C126.992 214.012 127.095 214.092 127.18 214.19L127.04 215.1L126.67 214.74Z" fill="white"/>
<path d="M175.42 234.79C175.457 234.8 175.491 234.818 175.521 234.842C175.551 234.865 175.576 234.895 175.595 234.928C175.614 234.962 175.625 234.999 175.63 235.037C175.634 235.075 175.631 235.113 175.62 235.15C175.57 235.296 175.466 235.417 175.33 235.49C175.233 235.573 175.116 235.628 174.99 235.65C174.867 235.657 174.744 235.624 174.642 235.555C174.539 235.487 174.461 235.387 174.42 235.27C174.388 235.151 174.388 235.025 174.42 234.906C174.451 234.787 174.514 234.678 174.6 234.59C174.639 234.543 174.688 234.506 174.743 234.48C174.799 234.454 174.859 234.44 174.92 234.44C174.979 234.437 175.038 234.458 175.082 234.497C175.127 234.536 175.155 234.591 175.16 234.65L175.42 234.79Z" fill="white"/>
<path d="M132.79 222.21L132.68 221.8C132.458 221.799 132.244 221.881 132.08 222.03C131.94 222.2 132 222.53 132.22 222.54C132.306 222.538 132.39 222.51 132.46 222.46L133.15 222.07L132.79 222.21Z" fill="white"/>
<path d="M125.29 220.89C125.14 220.575 124.933 220.29 124.68 220.05C124.546 219.93 124.379 219.853 124.2 219.83C124.022 219.806 123.84 219.838 123.68 219.92C123.532 220.014 123.419 220.155 123.36 220.32C123.283 220.451 123.237 220.597 123.225 220.748C123.212 220.899 123.235 221.051 123.29 221.192C123.345 221.333 123.432 221.46 123.543 221.563C123.655 221.666 123.788 221.742 123.933 221.786C124.078 221.829 124.231 221.839 124.381 221.815C124.531 221.791 124.673 221.733 124.797 221.646C124.921 221.559 125.023 221.444 125.097 221.312C125.17 221.179 125.212 221.031 125.22 220.88L125.29 220.89Z" fill="white"/>
<path d="M123.42 217.67L122.79 217.33C122.668 217.466 122.576 217.626 122.52 217.8C122.639 217.93 122.804 218.009 122.98 218.018C123.156 218.027 123.328 217.967 123.46 217.85L123.42 217.67Z" fill="white"/>
<path d="M143.47 207.02C142.125 206.706 140.725 206.706 139.38 207.02C139.159 207.058 138.948 207.139 138.76 207.26C138.602 207.407 138.483 207.591 138.413 207.795C138.343 207.999 138.325 208.217 138.36 208.43C138.434 208.955 138.664 209.446 139.021 209.838C139.378 210.231 139.844 210.507 140.36 210.63C140.874 210.748 141.41 210.74 141.92 210.606C142.43 210.472 142.9 210.216 143.29 209.86C143.745 209.493 144.036 208.961 144.1 208.38C144.121 208.091 144.041 207.804 143.873 207.569C143.705 207.333 143.46 207.164 143.18 207.09C143.149 207.122 143.126 207.16 143.113 207.203C143.1 207.246 143.098 207.291 143.107 207.334C143.116 207.378 143.136 207.418 143.164 207.452C143.192 207.487 143.229 207.513 143.27 207.53L143.47 207.02Z" fill="white"/>
<path d="M144.17 235.45C144.082 235.134 143.921 234.843 143.701 234.6C143.48 234.357 143.206 234.169 142.9 234.05C142.75 234.303 142.658 234.587 142.63 234.88C142.614 235.026 142.641 235.173 142.709 235.303C142.777 235.433 142.881 235.54 143.01 235.61C143.38 235.78 143.78 235.51 144.1 235.27V235.59L144.17 235.45Z" fill="white"/>
<path d="M139.42 235.57C139.309 235.424 139.155 235.315 138.98 235.26C138.802 235.25 138.625 235.291 138.47 235.38C138.03 235.584 137.571 235.745 137.1 235.86L139.28 236.92C139.336 236.948 139.387 236.985 139.43 237.03C139.58 237.2 139.43 237.46 139.43 237.68C139.43 237.9 139.86 238.14 140.19 238.16C142.58 238.32 140.11 236.32 139.42 235.57Z" fill="white"/>
<path d="M148.54 234.98C148.547 234.733 148.5 234.488 148.401 234.261C148.303 234.035 148.155 233.833 147.97 233.67L147.27 234.67C147.143 234.813 147.059 234.991 147.03 235.18C147.031 235.271 147.051 235.362 147.089 235.444C147.127 235.527 147.183 235.601 147.252 235.661C147.321 235.721 147.402 235.765 147.49 235.79C147.577 235.816 147.67 235.823 147.76 235.81C147.943 235.772 148.11 235.678 148.239 235.542C148.367 235.407 148.451 235.235 148.48 235.05L148.54 234.98Z" fill="white"/>
<path d="M171.7 241.89L171.3 241.99C171.278 242.1 171.294 242.214 171.345 242.313C171.396 242.413 171.479 242.493 171.58 242.54C171.632 242.561 171.687 242.57 171.743 242.569C171.798 242.567 171.853 242.554 171.904 242.531C171.954 242.508 172 242.474 172.037 242.433C172.074 242.391 172.102 242.343 172.12 242.29C172.131 242.236 172.129 242.179 172.115 242.126C172.1 242.072 172.074 242.022 172.037 241.981C172 241.939 171.954 241.906 171.903 241.885C171.851 241.865 171.795 241.856 171.74 241.86L171.7 241.89Z" fill="white"/>
<path d="M143.1 231.55C143.085 231.384 143.005 231.23 142.878 231.122C142.751 231.013 142.587 230.959 142.42 230.97C142.253 230.987 142.095 231.049 141.961 231.149C141.827 231.25 141.723 231.385 141.66 231.54C141.6 231.67 141.58 231.86 141.66 231.94C141.757 231.975 141.863 231.975 141.96 231.94L143.15 231.62L143.1 231.55Z" fill="white"/>
<path d="M146.76 227.07C146.615 226.752 146.408 226.466 146.15 226.23C146.017 226.107 145.85 226.029 145.671 226.005C145.492 225.982 145.31 226.015 145.15 226.1C145.002 226.194 144.889 226.335 144.83 226.5C144.753 226.631 144.707 226.777 144.695 226.928C144.682 227.079 144.705 227.231 144.76 227.372C144.815 227.513 144.902 227.64 145.013 227.743C145.125 227.846 145.258 227.922 145.403 227.966C145.548 228.009 145.701 228.019 145.851 227.995C146.001 227.971 146.143 227.913 146.267 227.826C146.391 227.739 146.493 227.624 146.567 227.492C146.64 227.359 146.682 227.211 146.69 227.06L146.76 227.07Z" fill="white"/>
<path d="M133.42 215.37C133.07 215.37 132.88 215.79 132.78 216.13C132.68 216.47 132.56 216.88 132.22 216.98C132.177 217.002 132.129 217.013 132.08 217.013C132.031 217.013 131.983 217.002 131.94 216.98C131.75 216.82 131.94 216.52 131.94 216.28C131.96 216.081 131.96 215.879 131.94 215.68C131.938 215.442 132.008 215.209 132.14 215.012C132.272 214.814 132.46 214.66 132.68 214.57C132.808 214.585 132.928 214.636 133.028 214.718C133.127 214.799 133.201 214.908 133.24 215.03C133.274 215.152 133.274 215.282 133.239 215.404C133.203 215.526 133.134 215.635 133.04 215.72L133.42 215.37Z" fill="white"/>
<path d="M125.18 218.32C124.82 218.32 124.63 218.74 124.54 219.08C124.45 219.42 124.32 219.83 123.98 219.93C123.937 219.952 123.889 219.963 123.84 219.963C123.791 219.963 123.743 219.952 123.7 219.93C123.5 219.78 123.7 219.47 123.7 219.23C123.725 219.031 123.725 218.829 123.7 218.63C123.699 218.391 123.77 218.157 123.904 217.959C124.038 217.761 124.228 217.608 124.45 217.52C124.576 217.537 124.694 217.589 124.792 217.67C124.889 217.752 124.961 217.859 125 217.98C125.04 218.102 125.042 218.233 125.006 218.356C124.97 218.479 124.899 218.588 124.8 218.67L125.18 218.32Z" fill="white"/>
<path d="M119.42 215.11C119.192 214.932 118.925 214.812 118.64 214.76H118.5C118.456 214.774 118.417 214.798 118.385 214.832C118.354 214.865 118.331 214.906 118.32 214.95C118.294 215.057 118.299 215.17 118.334 215.274C118.369 215.379 118.434 215.471 118.52 215.54C118.611 215.603 118.715 215.644 118.824 215.66C118.934 215.675 119.045 215.665 119.15 215.63C119.209 215.614 119.265 215.587 119.313 215.549C119.361 215.511 119.401 215.464 119.43 215.41C119.458 215.355 119.466 215.293 119.453 215.233C119.44 215.173 119.407 215.119 119.36 215.08C119.352 215.085 119.345 215.093 119.34 215.102C119.336 215.11 119.333 215.12 119.333 215.13C119.333 215.14 119.336 215.15 119.34 215.158C119.345 215.167 119.352 215.175 119.36 215.18L119.42 215.11Z" fill="white"/>
<path d="M157.96 231.48C157.872 231.164 157.711 230.873 157.491 230.63C157.27 230.387 156.996 230.199 156.69 230.08C156.54 230.333 156.448 230.617 156.42 230.91C156.404 231.056 156.432 231.203 156.499 231.333C156.567 231.463 156.672 231.57 156.8 231.64C157.16 231.81 157.57 231.54 157.88 231.29V231.62L157.96 231.48Z" fill="white"/>
<path d="M155.33 237.03C155.412 236.968 155.475 236.885 155.514 236.79C155.553 236.695 155.566 236.591 155.552 236.489C155.537 236.387 155.496 236.291 155.433 236.211C155.369 236.13 155.286 236.068 155.19 236.03C155.011 236.147 154.874 236.319 154.8 236.52C154.766 236.621 154.767 236.731 154.801 236.832C154.835 236.933 154.902 237.02 154.99 237.08C155.18 237.18 155.47 237.08 155.46 236.84L155.33 237.03Z" fill="white"/>
<path d="M147.87 229.05C147.952 228.988 148.015 228.905 148.054 228.81C148.093 228.715 148.106 228.611 148.092 228.509C148.077 228.407 148.036 228.311 147.973 228.231C147.909 228.15 147.826 228.088 147.73 228.05C147.549 228.17 147.412 228.345 147.34 228.55C147.307 228.652 147.309 228.763 147.345 228.864C147.381 228.965 147.45 229.051 147.54 229.11C147.587 229.133 147.638 229.144 147.69 229.143C147.742 229.142 147.793 229.128 147.838 229.104C147.884 229.08 147.924 229.045 147.953 229.003C147.983 228.96 148.003 228.911 148.01 228.86L147.87 229.05Z" fill="white"/>
<path d="M157.19 234.7C157.27 234.95 157.66 234.94 157.86 234.77C158.028 234.562 158.185 234.345 158.33 234.12C158.422 234.015 158.536 233.932 158.664 233.877C158.792 233.821 158.931 233.795 159.07 233.8C159.149 233.798 159.227 233.816 159.298 233.853C159.368 233.889 159.427 233.944 159.47 234.01C159.501 234.114 159.501 234.226 159.47 234.33C159.443 234.857 159.277 235.367 158.99 235.81C158.839 236.027 158.628 236.194 158.382 236.292C158.137 236.39 157.869 236.413 157.61 236.36C157.431 236.315 157.268 236.221 157.139 236.088C157.01 235.956 156.921 235.79 156.88 235.61C156.841 235.431 156.849 235.244 156.903 235.069C156.957 234.894 157.056 234.736 157.19 234.61V234.7Z" fill="white"/>
<path d="M130.97 217.98C131.05 218.24 131.44 218.23 131.64 218.05C131.805 217.842 131.958 217.625 132.1 217.4C132.194 217.298 132.309 217.217 132.436 217.162C132.564 217.107 132.701 217.079 132.84 217.08C132.92 217.078 133 217.096 133.072 217.133C133.143 217.169 133.205 217.223 133.25 217.29C133.28 217.395 133.28 217.505 133.25 217.61C133.23 218.138 133.064 218.651 132.77 219.09C132.619 219.307 132.409 219.476 132.163 219.576C131.918 219.675 131.65 219.701 131.39 219.65C131.214 219.596 131.054 219.498 130.926 219.365C130.798 219.232 130.707 219.068 130.66 218.89C130.621 218.711 130.629 218.524 130.683 218.349C130.737 218.174 130.836 218.016 130.97 217.89V217.98Z" fill="white"/>
<path d="M132.36 214.8C132.43 215.06 132.83 215.05 133.03 214.87C133.195 214.662 133.348 214.445 133.49 214.22C133.585 214.12 133.7 214.041 133.828 213.988C133.955 213.934 134.092 213.908 134.23 213.91C134.31 213.905 134.39 213.921 134.462 213.956C134.533 213.991 134.595 214.044 134.64 214.11C134.67 214.215 134.67 214.325 134.64 214.43C134.62 214.961 134.454 215.477 134.16 215.92C134.008 216.136 133.797 216.302 133.552 216.4C133.307 216.498 133.039 216.522 132.78 216.47C132.594 216.431 132.423 216.34 132.287 216.208C132.151 216.076 132.056 215.908 132.012 215.723C131.968 215.539 131.977 215.345 132.039 215.166C132.1 214.987 132.212 214.828 132.36 214.71V214.8Z" fill="white"/>
<path d="M136.7 217.89C136.78 218.14 137.17 218.13 137.37 217.96C137.538 217.752 137.695 217.535 137.84 217.31C137.931 217.206 138.043 217.124 138.169 217.069C138.296 217.014 138.432 216.987 138.57 216.99C138.65 216.988 138.73 217.006 138.802 217.043C138.873 217.079 138.935 217.133 138.98 217.2C139.011 217.304 139.011 217.416 138.98 217.52C138.956 218.049 138.787 218.561 138.49 219C138.341 219.219 138.13 219.388 137.884 219.486C137.638 219.584 137.369 219.606 137.11 219.55C136.933 219.503 136.772 219.408 136.645 219.276C136.518 219.144 136.43 218.979 136.39 218.8C136.348 218.622 136.354 218.435 136.407 218.26C136.46 218.085 136.557 217.926 136.69 217.8L136.7 217.89Z" fill="white"/>
<path d="M109.16 243.21C109.24 243.47 109.63 243.46 109.83 243.28C109.998 243.072 110.155 242.855 110.3 242.63C110.395 242.53 110.51 242.451 110.638 242.398C110.765 242.344 110.902 242.318 111.04 242.32C111.119 242.313 111.198 242.329 111.268 242.364C111.339 242.399 111.398 242.453 111.44 242.52C111.47 242.625 111.47 242.735 111.44 242.84C111.415 243.37 111.249 243.885 110.96 244.33C110.808 244.546 110.597 244.712 110.352 244.81C110.107 244.908 109.839 244.932 109.58 244.88C109.394 244.841 109.223 244.75 109.087 244.618C108.951 244.486 108.856 244.318 108.812 244.133C108.768 243.949 108.777 243.755 108.839 243.576C108.9 243.397 109.012 243.238 109.16 243.12V243.21Z" fill="white"/>
<path d="M151.76 235.89L151.43 235.62C151.251 235.754 151.129 235.95 151.09 236.17C151.09 236.39 151.33 236.61 151.51 236.49C151.574 236.437 151.622 236.368 151.65 236.29C151.76 236.04 151.86 235.8 151.97 235.56L151.76 235.89Z" fill="white"/>
<path d="M123.73 233.76C123.59 233.436 123.382 233.146 123.12 232.91C122.985 232.791 122.817 232.716 122.639 232.695C122.46 232.674 122.279 232.707 122.12 232.79C121.977 232.887 121.869 233.027 121.81 233.19C121.733 233.321 121.687 233.467 121.675 233.618C121.662 233.769 121.685 233.921 121.74 234.062C121.795 234.203 121.882 234.33 121.993 234.433C122.105 234.536 122.238 234.612 122.383 234.656C122.528 234.699 122.681 234.709 122.831 234.685C122.981 234.661 123.123 234.603 123.247 234.516C123.371 234.429 123.473 234.314 123.547 234.182C123.62 234.049 123.662 233.901 123.67 233.75L123.73 233.76Z" fill="white"/>
<path d="M151.78 225.03C151.889 225.085 151.981 225.168 152.049 225.269C152.116 225.371 152.156 225.488 152.165 225.61C152.174 225.731 152.152 225.853 152.1 225.964C152.048 226.074 151.969 226.169 151.87 226.24C151.593 226.21 151.324 226.125 151.08 225.99C151.16 225.692 151.344 225.433 151.6 225.26L151.78 225.03Z" fill="white"/>
<path opacity="0.5" d="M121.13 230.13C121.009 229.969 120.86 229.83 120.69 229.72C120.607 229.664 120.51 229.634 120.41 229.634C120.31 229.634 120.213 229.664 120.13 229.72C119.88 229.94 120.03 230.35 119.92 230.67C119.81 230.99 119.42 231.18 119.42 231.51C119.42 231.84 119.82 232.05 120.14 231.96C120.452 231.848 120.715 231.628 120.88 231.34C121.07 231.116 121.192 230.841 121.23 230.55C121.246 230.406 121.213 230.261 121.134 230.138C121.056 230.016 120.938 229.925 120.8 229.88L121.13 230.13Z" fill="white"/>
<path d="M137.31 222.09C137.578 221.438 137.675 220.729 137.593 220.029C137.511 219.329 137.251 218.662 136.84 218.09C136.139 218.147 135.461 218.37 134.865 218.743C134.268 219.115 133.769 219.625 133.41 220.23C133.085 220.852 133.019 221.578 133.227 222.249C133.435 222.919 133.9 223.481 134.52 223.81C135.82 224.34 137.52 222.93 137.02 221.62L137.31 222.09Z" fill="white"/>
<path d="M153.22 222.13C153.179 222.216 153.106 222.283 153.016 222.317C152.927 222.35 152.828 222.348 152.74 222.31C152.583 222.217 152.468 222.066 152.42 221.89C152.391 221.779 152.391 221.661 152.42 221.55C152.433 221.486 152.458 221.426 152.496 221.373C152.533 221.319 152.581 221.275 152.636 221.241C152.692 221.207 152.753 221.185 152.818 221.176C152.882 221.167 152.948 221.172 153.01 221.19C153.134 221.231 153.239 221.318 153.302 221.433C153.365 221.548 153.382 221.683 153.35 221.81C153.305 221.935 153.22 222.04 153.107 222.109C152.994 222.178 152.861 222.207 152.73 222.19L153.22 222.13Z" fill="white"/>
<path d="M145.49 222.19C145.16 222.33 145.12 222.77 145.14 223.13C145.16 223.49 145.14 223.9 144.89 224.13C144.854 224.162 144.81 224.185 144.763 224.197C144.716 224.209 144.667 224.21 144.62 224.2C144.38 224.12 144.45 223.77 144.42 223.52C144.366 223.33 144.292 223.145 144.2 222.97C144.118 222.744 144.106 222.499 144.167 222.267C144.228 222.035 144.358 221.826 144.54 221.67C144.664 221.643 144.793 221.652 144.912 221.696C145.031 221.741 145.134 221.818 145.21 221.92C145.281 222.027 145.319 222.152 145.319 222.28C145.319 222.408 145.281 222.533 145.21 222.64L145.49 222.19Z" fill="white"/>
<path d="M135.02 226.51L134.65 226.35C134.564 226.423 134.506 226.524 134.486 226.635C134.466 226.747 134.485 226.861 134.54 226.96C134.569 227.007 134.608 227.047 134.653 227.079C134.699 227.111 134.75 227.133 134.804 227.144C134.859 227.155 134.914 227.155 134.969 227.144C135.023 227.133 135.074 227.111 135.12 227.08C135.164 227.046 135.199 227.003 135.223 226.954C135.247 226.904 135.26 226.85 135.26 226.795C135.26 226.74 135.247 226.686 135.223 226.636C135.199 226.587 135.164 226.544 135.12 226.51H135.02Z" fill="white"/>
<path d="M142.82 226.14C142.844 226.169 142.861 226.203 142.871 226.239C142.882 226.275 142.885 226.313 142.88 226.351C142.875 226.388 142.863 226.424 142.844 226.456C142.825 226.489 142.8 226.517 142.77 226.54C142.64 226.626 142.485 226.665 142.33 226.65C142.204 226.65 142.081 226.619 141.97 226.56C141.864 226.496 141.783 226.397 141.742 226.281C141.7 226.164 141.699 226.037 141.74 225.92C141.785 225.805 141.86 225.704 141.957 225.627C142.053 225.55 142.168 225.499 142.29 225.48C142.408 225.461 142.529 225.486 142.63 225.55C142.68 225.585 142.715 225.637 142.728 225.696C142.741 225.756 142.731 225.818 142.7 225.87L142.82 226.14Z" fill="white"/>
<path d="M140.86 237.75C141.49 237.431 142.029 236.957 142.426 236.373C142.823 235.789 143.065 235.113 143.13 234.41C142.562 233.992 141.903 233.717 141.207 233.608C140.511 233.498 139.798 233.557 139.13 233.78C138.476 234.039 137.951 234.546 137.67 235.19C137.389 235.835 137.375 236.565 137.63 237.22C138.27 238.47 140.49 238.52 140.95 237.22L140.86 237.75Z" fill="white"/>
<path d="M151.16 233.79C150.98 233.41 150.34 233.64 150.26 234.05C150.255 234.256 150.292 234.461 150.369 234.652C150.447 234.843 150.563 235.016 150.71 235.16C150.955 235.014 151.151 234.798 151.272 234.539C151.393 234.281 151.434 233.992 151.39 233.71L151.16 233.79Z" fill="white"/>
<path d="M149.96 218.89L149.58 218.74C149.496 218.814 149.439 218.915 149.419 219.026C149.399 219.137 149.417 219.251 149.47 219.35C149.501 219.396 149.541 219.436 149.588 219.467C149.635 219.498 149.687 219.519 149.742 219.529C149.797 219.539 149.853 219.538 149.908 219.527C149.963 219.515 150.014 219.492 150.06 219.46C150.103 219.427 150.139 219.385 150.163 219.337C150.187 219.288 150.2 219.234 150.2 219.18C150.2 219.126 150.187 219.072 150.163 219.023C150.139 218.975 150.103 218.933 150.06 218.9L149.96 218.89Z" fill="white"/>
<path d="M145.98 225.19C144.831 224.233 143.481 223.55 142.03 223.19C141.798 223.116 141.551 223.095 141.31 223.13C141.085 223.19 140.879 223.307 140.713 223.47C140.546 223.633 140.425 223.836 140.36 224.06C140.176 224.6 140.157 225.183 140.307 225.734C140.457 226.284 140.768 226.778 141.2 227.15C141.642 227.511 142.165 227.76 142.724 227.875C143.283 227.99 143.861 227.968 144.41 227.81C145.022 227.686 145.56 227.327 145.91 226.81C146.067 226.541 146.126 226.225 146.077 225.917C146.028 225.609 145.873 225.327 145.64 225.12C145.594 225.136 145.554 225.162 145.521 225.198C145.488 225.233 145.465 225.276 145.453 225.323C145.441 225.369 145.441 225.418 145.453 225.465C145.464 225.511 145.488 225.554 145.52 225.59L145.98 225.19Z" fill="white"/>
<path d="M129.08 243.07C128.905 242.384 128.558 241.754 128.072 241.239C127.585 240.725 126.975 240.343 126.3 240.13C125.772 240.595 125.363 241.18 125.109 241.836C124.855 242.493 124.763 243.201 124.84 243.9C124.949 244.589 125.324 245.208 125.886 245.621C126.448 246.035 127.15 246.211 127.84 246.11C129.2 245.75 129.73 243.59 128.53 242.86L129.08 243.07Z" fill="white"/>
<path d="M120.52 217.89C120.43 217.575 120.268 217.285 120.048 217.042C119.828 216.799 119.555 216.611 119.25 216.49C119.102 216.745 119.007 217.027 118.97 217.32C118.958 217.465 118.987 217.611 119.054 217.74C119.122 217.869 119.224 217.977 119.35 218.05C119.72 218.22 120.13 217.95 120.44 217.7C120.44 217.81 120.44 217.92 120.44 218.03L120.52 217.89Z" fill="white"/>
<path d="M115.79 218.02C115.681 217.872 115.526 217.763 115.35 217.71C115.172 217.704 114.996 217.745 114.84 217.83C114.398 218.03 113.94 218.191 113.47 218.31L115.65 219.37C115.711 219.395 115.765 219.432 115.81 219.48C115.96 219.65 115.81 219.91 115.81 220.13C115.81 220.35 116.25 220.59 116.58 220.61C118.93 220.76 116.42 218.77 115.79 218.02Z" fill="white"/>
<path d="M144.25 221.17L143.63 220.83C143.517 221.039 143.473 221.277 143.504 221.512C143.534 221.748 143.638 221.967 143.8 222.14C144.15 222.45 144.85 222.27 144.89 221.8C144.89 221.51 144.84 221.05 145.13 221.08L144.25 221.17Z" fill="white"/>
<path d="M124.25 224.89C124.44 224.958 124.607 225.08 124.73 225.24C124.487 225.318 124.229 225.34 123.976 225.304C123.723 225.267 123.481 225.174 123.27 225.03C123.02 224.9 122.73 224.7 122.76 224.42C122.79 224.14 122.95 224.08 123.04 223.9C123.22 223.55 123.13 222.99 123.5 222.9C123.61 222.877 123.724 222.892 123.825 222.943C123.925 222.993 124.004 223.077 124.05 223.18C124.138 223.385 124.172 223.608 124.15 223.83V225.3L124.25 224.89Z" fill="white"/>
<path d="M121.6 232.18C121.43 231.8 120.78 232.03 120.71 232.44C120.705 232.646 120.742 232.851 120.819 233.042C120.897 233.233 121.013 233.406 121.16 233.55C121.403 233.402 121.597 233.185 121.718 232.927C121.839 232.67 121.882 232.382 121.84 232.1L121.6 232.18Z" fill="white"/>
<path opacity="0.5" d="M116.1 225.34C116.118 225.435 116.099 225.534 116.047 225.616C115.995 225.697 115.914 225.756 115.82 225.78C115.724 225.798 115.626 225.796 115.531 225.774C115.436 225.751 115.347 225.709 115.27 225.65C115.174 225.591 115.095 225.508 115.04 225.41C115.013 225.351 114.999 225.287 114.997 225.222C114.995 225.158 115.006 225.093 115.029 225.033C115.053 224.972 115.088 224.917 115.132 224.87C115.177 224.824 115.231 224.786 115.29 224.76C115.416 224.722 115.552 224.732 115.672 224.787C115.792 224.842 115.887 224.939 115.94 225.06C115.981 225.186 115.977 225.322 115.927 225.444C115.878 225.567 115.787 225.668 115.67 225.73L116.1 225.34Z" fill="white"/>
<path d="M117.88 223.45C117.962 223.388 118.026 223.306 118.065 223.212C118.105 223.117 118.119 223.014 118.106 222.912C118.093 222.811 118.053 222.714 117.99 222.633C117.928 222.552 117.845 222.489 117.75 222.45C117.567 222.566 117.427 222.738 117.35 222.94C117.319 223.042 117.322 223.152 117.358 223.253C117.394 223.354 117.461 223.44 117.55 223.5C117.596 223.525 117.647 223.538 117.699 223.539C117.751 223.539 117.802 223.527 117.848 223.504C117.894 223.48 117.934 223.446 117.964 223.403C117.994 223.361 118.013 223.312 118.02 223.26L117.88 223.45Z" fill="white"/>
<path d="M124.88 217.43C124.893 217.181 124.848 216.932 124.749 216.703C124.651 216.474 124.5 216.271 124.31 216.11L123.61 217.11C123.49 217.258 123.408 217.433 123.37 217.62C123.371 217.713 123.391 217.804 123.43 217.888C123.468 217.972 123.525 218.047 123.595 218.108C123.665 218.169 123.747 218.213 123.836 218.24C123.925 218.266 124.018 218.273 124.11 218.26C124.292 218.221 124.457 218.127 124.584 217.991C124.711 217.856 124.793 217.684 124.82 217.5L124.88 217.43Z" fill="white"/>
<path opacity="0.5" d="M116.62 231.08C116.652 231.212 116.646 231.35 116.603 231.479C116.561 231.607 116.483 231.722 116.38 231.809C116.276 231.896 116.15 231.953 116.016 231.972C115.881 231.992 115.744 231.974 115.62 231.92C115.45 231.83 115.32 231.6 115.43 231.44C115.489 231.383 115.561 231.341 115.64 231.32L116.64 230.94V231.12L116.62 231.08Z" fill="white"/>
<path opacity="0.5" d="M112.42 234.8C112.07 234.8 111.88 235.23 111.78 235.57C111.68 235.91 111.56 236.31 111.22 236.42C111.177 236.442 111.129 236.453 111.08 236.453C111.031 236.453 110.983 236.442 110.94 236.42C110.75 236.26 110.94 235.96 110.94 235.72C110.96 235.52 110.96 235.32 110.94 235.12C110.936 234.882 111.004 234.648 111.136 234.449C111.269 234.251 111.458 234.098 111.68 234.01C111.807 234.025 111.926 234.076 112.024 234.157C112.122 234.239 112.195 234.347 112.233 234.468C112.271 234.59 112.273 234.72 112.239 234.843C112.204 234.965 112.135 235.076 112.04 235.16L112.42 234.8Z" fill="white"/>
<path opacity="0.5" d="M135.79 212.56C135.43 212.56 135.24 212.98 135.15 213.32C135.06 213.66 134.92 214.07 134.59 214.17C134.547 214.193 134.499 214.205 134.45 214.205C134.401 214.205 134.353 214.193 134.31 214.17C134.11 214.01 134.31 213.71 134.31 213.47C134.33 213.271 134.33 213.069 134.31 212.87C134.309 212.631 134.38 212.397 134.514 212.199C134.648 212.001 134.838 211.848 135.06 211.76C135.186 211.777 135.304 211.829 135.402 211.91C135.499 211.992 135.571 212.099 135.61 212.22C135.647 212.342 135.648 212.472 135.612 212.595C135.577 212.717 135.506 212.827 135.41 212.91L135.79 212.56Z" fill="white"/>
<path opacity="0.5" d="M110.11 232.1L109.8 231.82C109.696 231.862 109.609 231.938 109.554 232.037C109.5 232.135 109.48 232.249 109.5 232.36C109.513 232.414 109.536 232.465 109.569 232.51C109.602 232.555 109.643 232.593 109.69 232.621C109.738 232.65 109.79 232.669 109.845 232.678C109.9 232.686 109.956 232.683 110.01 232.67C110.062 232.65 110.107 232.617 110.144 232.576C110.181 232.534 110.207 232.484 110.221 232.431C110.234 232.377 110.235 232.321 110.223 232.267C110.21 232.213 110.186 232.163 110.15 232.12L110.11 232.1Z" fill="white"/>
<path d="M119.75 221.12C119.83 221.37 120.22 221.36 120.42 221.19C120.588 220.982 120.745 220.765 120.89 220.54C120.981 220.436 121.093 220.354 121.219 220.299C121.346 220.243 121.482 220.217 121.62 220.22C121.7 220.218 121.78 220.236 121.852 220.273C121.923 220.309 121.985 220.363 122.03 220.43C122.061 220.534 122.061 220.646 122.03 220.75C122.015 221.279 121.848 221.793 121.55 222.23C121.401 222.449 121.19 222.618 120.944 222.716C120.698 222.814 120.429 222.836 120.17 222.78C119.984 222.741 119.813 222.65 119.677 222.518C119.541 222.386 119.446 222.218 119.402 222.033C119.358 221.849 119.367 221.655 119.429 221.476C119.49 221.297 119.602 221.138 119.75 221.02V221.12Z" fill="white"/>
<path d="M119.42 214C119.405 213.833 119.325 213.678 119.199 213.568C119.072 213.458 118.908 213.402 118.74 213.41C118.574 213.429 118.417 213.494 118.285 213.596C118.152 213.698 118.051 213.834 117.99 213.99C117.93 214.12 117.91 214.31 117.99 214.39C118.036 214.41 118.085 214.42 118.135 214.42C118.185 214.42 118.234 214.41 118.28 214.39L119.47 214.08L119.42 214Z" fill="white"/>
<path d="M127.2 230.68C127.171 230.844 127.105 231 127.006 231.134C126.908 231.269 126.779 231.379 126.632 231.456C126.484 231.533 126.32 231.576 126.154 231.58C125.987 231.584 125.821 231.55 125.67 231.48C125.753 230.96 125.981 230.474 126.33 230.08C126.421 229.987 126.53 229.913 126.651 229.865C126.771 229.816 126.901 229.794 127.031 229.798C127.161 229.803 127.289 229.835 127.406 229.892C127.523 229.949 127.626 230.03 127.71 230.13L127.57 231.04L127.2 230.68Z" fill="white"/>
<path opacity="0.5" d="M114.32 222.26L113.99 221.99C113.811 222.124 113.689 222.32 113.65 222.54C113.65 222.76 113.89 222.98 114.07 222.86C114.131 222.804 114.179 222.736 114.21 222.66C114.31 222.41 114.42 222.17 114.53 221.93L114.32 222.26Z" fill="white"/>
<path d="M151.49 228.32C151.346 227.998 151.139 227.709 150.88 227.47C150.745 227.352 150.578 227.277 150.4 227.254C150.222 227.231 150.041 227.261 149.88 227.34C149.734 227.438 149.625 227.583 149.57 227.75C149.489 227.88 149.44 228.027 149.425 228.18C149.41 228.332 149.431 228.486 149.485 228.63C149.539 228.773 149.626 228.902 149.738 229.006C149.85 229.111 149.984 229.189 150.131 229.233C150.278 229.277 150.432 229.287 150.584 229.262C150.735 229.237 150.878 229.178 151.003 229.089C151.127 229 151.23 228.883 151.302 228.748C151.374 228.613 151.415 228.463 151.42 228.31L151.49 228.32Z" fill="white"/>
<path d="M133.23 238.27L132.61 237.93C132.483 238.06 132.388 238.218 132.33 238.39C132.449 238.519 132.613 238.598 132.788 238.609C132.963 238.62 133.136 238.563 133.27 238.45L133.23 238.27Z" fill="white"/>
<path d="M168.23 236.13C168.251 236.225 168.233 236.325 168.181 236.408C168.128 236.49 168.045 236.548 167.95 236.57C167.758 236.604 167.56 236.561 167.4 236.45C167.304 236.391 167.225 236.308 167.17 236.21C167.142 236.151 167.127 236.086 167.125 236.02C167.123 235.955 167.135 235.89 167.159 235.829C167.184 235.768 167.22 235.713 167.267 235.666C167.313 235.62 167.369 235.584 167.43 235.56C167.555 235.52 167.69 235.529 167.809 235.585C167.927 235.64 168.021 235.739 168.07 235.86C168.111 235.986 168.107 236.122 168.057 236.244C168.008 236.367 167.917 236.468 167.8 236.53L168.23 236.13Z" fill="white"/>
<path d="M130.77 232.89L130.14 232.55C130.014 232.683 129.922 232.844 129.87 233.02C129.986 233.151 130.148 233.231 130.323 233.242C130.497 233.253 130.669 233.195 130.8 233.08L130.77 232.89Z" fill="white"/>
<path d="M139.49 215.42C139.49 215.16 139.11 215.05 138.87 215.16C138.63 215.27 138.46 215.51 138.23 215.65C138.111 215.717 137.979 215.758 137.843 215.772C137.707 215.786 137.57 215.771 137.44 215.73C137.362 215.71 137.29 215.67 137.232 215.614C137.174 215.558 137.132 215.488 137.11 215.41C137.1 215.303 137.121 215.196 137.17 215.1C137.345 214.598 137.656 214.154 138.07 213.82C138.277 213.656 138.529 213.558 138.792 213.536C139.055 213.515 139.319 213.572 139.55 213.7C139.703 213.802 139.827 213.943 139.91 214.108C139.992 214.272 140.03 214.456 140.02 214.64C140.01 214.824 139.95 215.001 139.846 215.153C139.742 215.305 139.598 215.425 139.43 215.5L139.49 215.42Z" fill="white"/>
<path d="M144.82 228.59C144.884 228.779 144.986 228.952 145.12 229.1C145.187 229.176 145.275 229.231 145.373 229.256C145.471 229.281 145.575 229.275 145.67 229.24C145.97 229.1 145.95 228.66 146.15 228.39C146.35 228.12 146.77 228.05 146.87 227.73C146.97 227.41 146.65 227.1 146.32 227.09C145.989 227.103 145.673 227.234 145.43 227.46C145.185 227.621 144.988 227.846 144.86 228.11C144.799 228.245 144.788 228.397 144.828 228.54C144.868 228.683 144.957 228.807 145.08 228.89L144.82 228.59Z" fill="white"/>
<path d="M131.29 221.27C132.415 221.739 133.634 221.941 134.85 221.86C135.046 221.86 135.24 221.819 135.42 221.74C135.584 221.631 135.717 221.482 135.807 221.307C135.896 221.132 135.938 220.937 135.93 220.74C135.942 220.274 135.814 219.816 135.562 219.424C135.311 219.032 134.948 218.724 134.52 218.54C134.086 218.372 133.619 218.31 133.156 218.359C132.694 218.407 132.249 218.566 131.86 218.82C131.638 218.946 131.445 219.116 131.29 219.318C131.135 219.521 131.023 219.753 130.96 220C130.901 220.248 130.93 220.509 131.044 220.737C131.157 220.966 131.347 221.147 131.58 221.25C131.613 221.228 131.64 221.198 131.659 221.163C131.678 221.129 131.687 221.09 131.687 221.05C131.687 221.01 131.678 220.971 131.659 220.936C131.64 220.902 131.613 220.872 131.58 220.85L131.29 221.27Z" fill="white"/>
<path d="M137.05 214.61C137.129 214.445 137.15 214.258 137.11 214.08C137.031 213.92 136.906 213.787 136.75 213.7C136.361 213.41 135.993 213.093 135.65 212.75C135.71 213.55 135.76 214.36 135.81 215.16C135.825 215.222 135.825 215.288 135.81 215.35C135.74 215.56 135.44 215.57 135.26 215.7C135.08 215.83 135.08 216.31 135.26 216.61C136.24 218.7 136.74 215.56 137.05 214.61Z" fill="white"/>
<path d="M131.31 220.97L131.03 220.68C130.921 220.714 130.827 220.784 130.763 220.878C130.7 220.973 130.67 221.086 130.68 221.2C130.69 221.255 130.71 221.307 130.74 221.353C130.77 221.4 130.809 221.44 130.854 221.472C130.9 221.504 130.951 221.526 131.005 221.538C131.06 221.549 131.115 221.55 131.17 221.54C131.223 221.524 131.272 221.495 131.311 221.456C131.351 221.417 131.381 221.369 131.399 221.316C131.416 221.263 131.421 221.207 131.413 221.152C131.404 221.097 131.383 221.045 131.35 221L131.31 220.97Z" fill="white"/>
<path d="M133.21 214.7C133.347 214.607 133.442 214.463 133.474 214.3C133.506 214.137 133.472 213.968 133.38 213.83C133.282 213.695 133.149 213.589 132.996 213.522C132.844 213.455 132.676 213.43 132.51 213.45C132.36 213.45 132.19 213.54 132.18 213.69C132.192 213.791 132.242 213.884 132.32 213.95L133.18 214.82L133.21 214.7Z" fill="white"/>
<path d="M130.99 218.51C131.219 218.275 131.39 217.99 131.491 217.678C131.591 217.366 131.618 217.034 131.57 216.71C131.278 216.714 130.989 216.775 130.72 216.89C130.584 216.949 130.469 217.047 130.389 217.172C130.309 217.296 130.268 217.442 130.27 217.59C130.27 217.99 130.74 218.21 131.11 218.36L130.81 218.49L130.99 218.51Z" fill="white"/>
<path d="M128.42 220.01C128.458 220.205 128.437 220.407 128.36 220.59C128.17 220.422 128.021 220.211 127.928 219.974C127.834 219.738 127.797 219.483 127.82 219.23C127.82 218.94 127.82 218.59 128.1 218.48C128.38 218.37 128.49 218.48 128.68 218.48C129.08 218.48 129.52 218.09 129.81 218.36C129.881 218.446 129.919 218.554 129.919 218.665C129.919 218.776 129.881 218.884 129.81 218.97C129.673 219.149 129.494 219.293 129.29 219.39L128.01 220.11L128.42 220.01Z" fill="white"/>
<path d="M135.24 216.83C135.46 216.717 135.652 216.556 135.801 216.359C135.95 216.161 136.052 215.933 136.1 215.69L134.89 215.57C134.707 215.517 134.513 215.517 134.33 215.57C134.242 215.614 134.165 215.678 134.106 215.756C134.046 215.835 134.006 215.926 133.987 216.023C133.969 216.12 133.973 216.219 134 216.314C134.026 216.409 134.074 216.497 134.14 216.57C134.264 216.705 134.425 216.8 134.603 216.843C134.781 216.886 134.968 216.874 135.14 216.81L135.24 216.83Z" fill="white"/>
<path d="M129.49 214.21C129.3 214.41 129.49 214.75 129.76 214.83C130.025 214.872 130.292 214.899 130.56 214.91C130.694 214.939 130.819 214.998 130.928 215.08C131.037 215.163 131.126 215.269 131.19 215.39C131.231 215.46 131.253 215.539 131.253 215.62C131.253 215.701 131.231 215.78 131.19 215.85C131.121 215.935 131.032 216 130.93 216.04C130.459 216.284 129.93 216.394 129.4 216.36C129.138 216.338 128.888 216.238 128.681 216.075C128.475 215.911 128.322 215.69 128.24 215.44C128.182 215.26 128.176 215.068 128.223 214.886C128.27 214.703 128.368 214.537 128.504 214.407C128.641 214.278 128.812 214.19 128.997 214.153C129.182 214.116 129.374 214.132 129.55 214.2L129.49 214.21Z" fill="white"/>
<path d="M137.95 229.26C138.151 228.973 138.297 228.651 138.38 228.31C138.415 228.138 138.397 227.959 138.329 227.797C138.262 227.635 138.147 227.496 138 227.4C137.847 227.317 137.67 227.292 137.5 227.33C137.347 227.325 137.194 227.355 137.054 227.418C136.914 227.482 136.791 227.576 136.693 227.695C136.596 227.814 136.527 227.953 136.492 228.103C136.457 228.252 136.457 228.408 136.492 228.557C136.527 228.707 136.596 228.846 136.694 228.965C136.792 229.083 136.915 229.178 137.055 229.241C137.195 229.304 137.348 229.334 137.501 229.329C137.655 229.323 137.805 229.283 137.94 229.21L137.95 229.26Z" fill="white"/>
<path d="M142.97 223.27C143.197 223.034 143.368 222.749 143.469 222.437C143.569 222.125 143.597 221.794 143.55 221.47C143.255 221.47 142.963 221.528 142.69 221.64C142.556 221.701 142.443 221.799 142.365 221.924C142.287 222.048 142.247 222.193 142.25 222.34C142.25 222.74 142.71 222.96 143.09 223.11L142.78 223.24L142.97 223.27Z" fill="white"/>
<path d="M127.19 220.12C126.84 220.12 126.62 220.5 126.5 220.84C126.38 221.18 126.23 221.57 125.88 221.65C125.832 221.662 125.783 221.663 125.735 221.655C125.686 221.646 125.641 221.627 125.6 221.6C125.42 221.43 125.6 221.14 125.69 220.9C125.71 220.701 125.71 220.5 125.69 220.3C125.706 220.063 125.793 219.837 125.939 219.649C126.085 219.462 126.284 219.323 126.51 219.25C126.637 219.271 126.754 219.33 126.848 219.418C126.941 219.506 127.007 219.62 127.036 219.745C127.065 219.87 127.056 220.001 127.01 220.121C126.965 220.241 126.885 220.345 126.78 220.42L127.19 220.12Z" fill="white"/>
<path d="M148.31 237.54L147.91 237.48C147.839 237.566 147.801 237.674 147.801 237.785C147.801 237.896 147.839 238.004 147.91 238.09C147.949 238.13 147.996 238.162 148.047 238.183C148.099 238.205 148.154 238.216 148.21 238.216C148.266 238.216 148.321 238.205 148.373 238.183C148.424 238.162 148.471 238.13 148.51 238.09C148.541 238.044 148.56 237.992 148.568 237.938C148.575 237.883 148.57 237.828 148.552 237.776C148.535 237.724 148.506 237.676 148.467 237.637C148.429 237.598 148.382 237.568 148.33 237.55L148.31 237.54Z" fill="white"/>
<path d="M136.1 220.06L136.17 219.64C135.959 219.568 135.731 219.568 135.52 219.64C135.33 219.74 135.26 220.07 135.45 220.17C135.531 220.195 135.619 220.195 135.7 220.17L136.49 220.08L136.1 220.06Z" fill="white"/>
<path style="mix-blend-mode:multiply" opacity="0.5" d="M132.99 313.12C165.078 313.12 191.09 307.331 191.09 300.19C191.09 293.049 165.078 287.26 132.99 287.26C100.902 287.26 74.89 293.049 74.89 300.19C74.89 307.331 100.902 313.12 132.99 313.12Z" fill="url(#paint0_radial)"/>
<path d="M268.21 1.71L272.36 3.49L268.21 50L264.65 51.59L245.06 53.55L243.58 61.72L229.34 50L268.21 1.71Z" fill="url(#paint1_linear)"/>
<path d="M121.57 249.97C119.87 259.86 112.36 282.7 105.57 280.29C104.11 279.77 102.57 277.93 101.07 275.22C96.47 266.97 91.93 250.76 89.69 239.79C88.47 233.79 87.92 229.38 88.41 228.67C91.41 224.22 119.97 243.51 121.67 245.67C122.04 246.07 121.96 247.67 121.57 249.97Z" fill="url(#paint2_linear)"/>
<path d="M166.78 236.62C166.67 237.53 166.54 238.48 166.41 239.47C164.41 254.47 160.23 276.55 155.74 284.57C154.67 286.49 153.58 287.57 152.5 287.63C152.204 287.64 151.91 287.596 151.63 287.5C150.382 287.024 149.286 286.219 148.46 285.17V285.17C141.66 277.54 133.98 254.36 133.71 247.44C133.623 246.841 133.713 246.229 133.97 245.68C137.84 240.42 165.92 222.46 167.48 224.6C167.89 225.16 167.59 229.94 166.78 236.62Z" fill="url(#paint3_linear)"/>
<path d="M88.42 228.67C85.26 232.8 111.01 251.49 121.87 246.61C121.91 246.61 92.66 223.18 88.42 228.67Z" fill="url(#paint4_linear)"/>
<path d="M133.71 247.42C132.85 249.52 162.59 244.69 167.48 224.58C167.48 224.58 141.77 227.59 133.71 247.42Z" fill="url(#paint5_linear)"/>
<path style="mix-blend-mode:multiply" opacity="0.3" d="M99.72 246.02C98.28 247.81 100.06 270.94 105.62 280.29C104.16 279.77 102.62 277.93 101.12 275.22C100.22 271.17 98.88 265.15 97.61 259.15C95.99 251.43 91.85 243.5 89.74 239.79C88.52 233.79 87.97 229.38 88.46 228.67C91.46 224.22 120.02 243.51 121.72 245.67C122.04 246.08 121.96 247.67 121.57 249.98C121.57 249.97 101.17 244.25 99.72 246.02Z" fill="url(#paint6_linear)"/>
<path d="M150.02 254.42C148.81 254.79 148.53 264.48 150.55 265.01C152.57 265.54 152.83 253.55 150.02 254.42Z" fill="white"/>
<path style="mix-blend-mode:multiply" opacity="0.3" d="M166.78 236.62C166.78 236.62 150.51 241.43 146.78 249.15C143.05 256.87 144.43 275.15 148.48 285.15C141.68 277.52 134 254.34 133.73 247.42C133.643 246.821 133.733 246.209 133.99 245.66C137.86 240.4 165.94 222.44 167.5 224.58C167.89 225.16 167.59 229.94 166.78 236.62Z" fill="url(#paint7_linear)"/>
<path d="M96.49 160.8C96.49 169.39 95.26 181.8 91.36 191.8C84.91 208.4 75.23 229.31 74.93 229.96C69.01 233.56 61.93 233.37 57.42 232.72C55.8899 232.503 54.3788 232.169 52.9 231.72C54.9082 217.629 59.1126 203.939 65.36 191.15C70.2925 181.158 76.2227 171.689 83.06 162.89L83.14 162.79C83.2 162.69 83.28 162.6 83.35 162.5L83.47 162.35C83.5127 162.308 83.5497 162.261 83.58 162.21L83.73 162.02C89.59 154.59 94.35 150.08 95.35 150.63C95.99 150.89 96.52 154.96 96.49 160.8Z" fill="url(#paint8_linear)"/>
<path d="M52.98 231.05C52.98 231.05 60.6 218.47 68.46 220.05C76.32 221.63 74.92 229.96 74.92 229.96C71.6903 232.076 67.9546 233.293 64.098 233.485C60.2414 233.676 56.4035 232.836 52.98 231.05V231.05Z" fill="url(#paint9_linear)"/>
<path style="mix-blend-mode:multiply" opacity="0.3" d="M96.49 160.8C96.49 169.39 95.26 181.8 91.36 191.8C84.91 208.4 75.23 229.31 74.93 229.96L57.42 232.77C55.8899 232.553 54.3788 232.219 52.9 231.77C54.9082 217.679 59.1126 203.989 65.36 191.2C70.2896 181.19 76.2198 171.705 83.06 162.89C79.76 167.25 65.95 186.21 62.24 202.33C58.01 220.66 75.06 213.6 82.04 202.33C89.02 191.06 96.28 160.8 96.28 160.8H96.49Z" fill="url(#paint10_linear)"/>
<path d="M77.42 190.1C76.03 189.58 83.2 173.34 85.42 173.19C87.64 173.04 78.62 190.55 77.42 190.1Z" fill="white"/>
<path d="M76.71 191.89C75.62 191.3 74.58 194.34 75.58 194.79C76.58 195.24 77.95 192.49 76.71 191.89Z" fill="white"/>
<path d="M65.92 223.89C61.86 223.22 55.92 227.03 54.1 230.45C52.28 233.87 51.29 253.57 55.94 269.89C55.94 269.89 62.51 271.67 67.43 269.89C72.35 268.11 75.77 253.75 76.04 242.95C76.31 232.15 72.62 224.99 65.92 223.89Z" fill="url(#paint11_linear)"/>
<path d="M65.32 270.39C65.32 270.39 59.32 235.73 72.95 228.65C72.95 228.65 76.95 235.52 75.5 248.92C74.05 262.32 71.68 269.16 65.32 270.39Z" fill="url(#paint12_linear)"/>
<path style="mix-blend-mode:multiply" opacity="0.5" d="M64.34 251.16C64.34 251.16 67.84 256.27 70.23 257.16C71.6083 257.665 73.1239 257.647 74.49 257.11L65.65 241.38C65.65 241.38 64.05 247.58 64.34 251.16Z" fill="url(#paint13_linear)"/>
<path d="M65.65 241.33C65.65 241.33 67.59 231.73 73.39 229.39C73.39 229.39 78.78 234.7 77.39 255.39C77.39 255.39 74.39 259.39 70.14 255.39C67.9843 250.94 66.4725 246.206 65.65 241.33V241.33Z" fill="url(#paint14_linear)"/>
<path d="M68.97 237.95C66.97 237.95 69.97 246.66 70.97 246.46C71.97 246.26 70.61 237.95 68.97 237.95Z" fill="white"/>
<path d="M91.36 38.77C91.36 38.77 82.45 31.08 71.55 29.77C71.55 29.77 68.21 31.4 64.35 43.41C60.49 55.42 67.61 79.16 67.61 79.16L91.36 38.77Z" fill="url(#paint15_linear)"/>
<path d="M67.32 35.74C67.32 35.74 69.07 31.68 71.55 29.74C71.55 29.74 80.55 38.02 80.16 57.8L77.58 60.47L67.32 35.74Z" fill="url(#paint16_linear)"/>
<path d="M165.09 38.77C165.09 38.77 174 31.08 184.91 29.77C184.91 29.77 188.25 31.4 192.1 43.41C195.95 55.42 188.84 79.16 188.84 79.16L165.09 38.77Z" fill="url(#paint17_linear)"/>
<path d="M184.91 29.75C179.165 36.6955 176.041 45.4368 176.08 54.45L179.49 56.6L189.42 36.02C189.42 36.02 186.14 29.57 184.91 29.75Z" fill="url(#paint18_linear)"/>
<path d="M179.16 55.56C179.16 55.56 176.91 42.56 185.11 32.97C185.11 32.97 194.37 37.54 198.2 54.45C202.03 71.36 192.06 81.51 192.06 81.51L179.16 55.56Z" fill="url(#paint19_linear)"/>
<path d="M77.28 55.56C77.28 55.56 79.63 42.56 71.06 32.97C71.06 32.97 61.38 37.54 57.38 54.45C53.38 71.36 63.8 81.51 63.8 81.51L77.28 55.56Z" fill="url(#paint20_linear)"/>
<path d="M191.06 127.51C171.18 155.39 77.74 153.32 65.57 130.77C57.63 116.05 58.5 93.91 66.15 73.53C76.15 46.79 97.89 23.07 126.69 23.07C160.58 23.07 186.61 56.83 194.46 87.67C198.42 103.28 197.75 118.14 191.06 127.51Z" fill="url(#paint21_linear)"/>
<path d="M72.55 101.65C77 120.65 159.13 122.7 179.3 105.5C199.47 88.3 170.42 27.16 125.93 29.83C85.22 32.27 65.26 70.55 72.55 101.65Z" fill="#DFE3FB"/>
<path d="M72.12 99.34C76.57 118.34 158.7 120.4 178.88 103.19C199.06 85.98 170 24.89 125.5 27.52C84.8 29.96 64.83 68.24 72.12 99.34Z" fill="url(#paint22_linear)"/>
<path style="mix-blend-mode:multiply" opacity="0.3" d="M191.06 127.51C171.18 155.39 77.74 153.32 65.57 130.77C57.63 116.05 58.5 93.91 66.15 73.53C65.82 74.73 57.99 103.29 65.99 115.86C74.16 128.7 106.5 126.92 141.21 125.44C175.92 123.96 187.41 118.91 193.21 109.12C197.8 101.41 193.21 84.41 191.01 77.53L194.42 87.67C198.42 103.28 197.75 118.14 191.06 127.51Z" fill="url(#paint23_linear)"/>
<path d="M126.79 148.04C107.37 148.04 93.37 145.83 85.54 142.69C80.4 140.64 77.91 138.18 78.28 135.69C78.5 134.15 82.28 132.8 88.28 131.69C105.92 128.5 142.43 127.54 162.1 130.52C163.79 130.78 165.36 131.06 166.78 131.38L167.66 131.59H167.83C171.22 132.43 173.63 133.45 174.7 134.69C174.955 134.978 175.143 135.32 175.25 135.69C177.1 141.95 144.34 148.05 126.79 148.04Z" fill="url(#paint24_linear)"/>
<path style="mix-blend-mode:multiply" opacity="0.5" d="M175.05 134.11C174.971 134.319 174.86 134.515 174.72 134.69C172.81 137.38 165.1 140.85 165.1 140.85C165.1 140.85 135.42 128.72 111.42 134.11C87.42 139.5 85.55 142.69 85.55 142.69C80.41 140.64 77.92 138.18 78.29 135.69C78.51 134.15 82.29 132.8 88.29 131.69C105.93 128.5 142.44 127.54 162.11 130.52C164.16 130.88 166.03 131.25 167.67 131.59H167.84C172.51 132.6 175.27 133.5 175.05 134.11Z" fill="url(#paint25_linear)"/>
<path d="M166.8 131.35C162.21 135.74 140.19 139.53 127.64 139.52C105.14 139.52 91.47 135.94 88.3 131.66C107.42 128.2 148.88 127.35 166.8 131.35Z" fill="url(#paint26_linear)"/>
<path d="M165.42 219.33C162.71 235.33 148.37 246.02 127.81 246.02C109.91 246.02 94.75 239.35 90.75 224.66C86.75 209.97 88.29 182.83 93.63 165.92C94.4206 163.433 95.3829 161.004 96.51 158.65V158.65C97.499 156.574 98.6318 154.569 99.9 152.65C106.43 142.82 115.99 136.4 126.79 136.4C138.04 136.4 146.65 141.02 152.51 147.87C155.223 151.073 157.383 154.706 158.9 158.62C160.698 163.228 162.172 167.956 163.31 172.77C163.303 172.816 163.303 172.864 163.31 172.91C167.03 188.27 167.81 205.03 165.42 219.33Z" fill="url(#paint27_linear)"/>
<path d="M151.35 146.6C151.35 146.6 153.1 165.6 164.27 177.19C164.27 177.19 161.18 159.46 151.35 146.6Z" fill="url(#paint28_linear)"/>
<path style="mix-blend-mode:multiply" opacity="0.5" d="M65.57 130.77C68.9066 127.286 72.8732 124.466 77.26 122.46C85 118.75 92.12 115.85 93.26 112.87C94.4 109.89 72.02 111.65 72.02 111.65L60.9 116.47C60.9 116.47 62.61 125.44 65.57 130.77Z" fill="url(#paint29_linear)"/>
<path d="M143.15 68.61C146.15 73.84 165.78 69.19 166.89 66.09C168.37 61.94 162.89 48.88 152.5 50.09C142.11 51.3 141.71 66.08 143.15 68.61Z" fill="url(#paint30_linear)"/>
<path d="M112.42 68.61C109.42 73.84 89.8 69.19 88.69 66.09C87.21 61.94 92.69 48.88 103.08 50.09C113.47 51.3 113.87 66.08 112.42 68.61Z" fill="url(#paint31_linear)"/>
<path d="M106.96 78.25C106.96 78.25 112.56 84.04 128.45 84.04C144.34 84.04 152.5 77.36 152.5 77.36C152.5 77.36 145.5 86.86 128.45 86.86C111.4 86.86 106.96 78.25 106.96 78.25Z" fill="#2F95CD"/>
<path d="M56.42 60.48C56.42 60.48 62.18 64.19 58.42 72.78C58.42 72.78 31.5 87.44 33.05 103.42C34.35 116.75 71.55 110.3 71.55 110.3L72.88 114.75C72.88 114.75 41.32 120.89 30.42 113.5C30.42 113.5 26.71 104.69 35.91 88.82C41.8379 78.7479 48.7052 69.259 56.42 60.48V60.48Z" fill="url(#paint32_linear)"/>
<path d="M66.87 109.06C63.48 112.89 70.67 117.06 76.59 117.73C83.22 118.45 95.01 115.83 94.3 109.15C93.59 102.47 74.82 100.07 66.87 109.06Z" fill="url(#paint33_linear)"/>
<path style="mix-blend-mode:screen" opacity="0.5" d="M85.6 51.33C84.6 57.48 98.26 57.21 116.9 56.6C139.29 55.86 161.8 75.14 174.9 61.3C177.06 59.02 155.61 29.07 129.73 29.74C103.85 30.41 86.49 45.99 85.6 51.33Z" fill="url(#paint34_linear)"/>
<path style="mix-blend-mode:screen" opacity="0.5" d="M98.29 104.89C97.11 109.35 106.44 113.8 129.37 112.68C157.1 111.32 162.98 105.52 161.62 103.91C160.8 102.91 152.5 108.17 129.73 103.18C114.69 99.89 99.54 100.21 98.29 104.89Z" fill="url(#paint35_linear)"/>
<path style="mix-blend-mode:multiply" opacity="0.3" d="M190.86 76.89L190.2 74.89C190.32 75.3 190.57 75.99 190.86 76.89Z" fill="url(#paint36_linear)"/>
<path style="mix-blend-mode:multiply" opacity="0.3" d="M165.42 219.33C162.71 235.33 148.37 246.02 127.81 246.02C109.91 246.02 94.75 239.35 90.75 224.66C86.75 209.97 88.29 182.83 93.63 165.92C94.4206 163.433 95.3829 161.004 96.51 158.65V158.65C96.51 158.65 85.69 194.55 94.34 217.41C102.99 240.27 143.34 239.8 156.97 224.6C169.97 210.14 163.97 176.18 163.35 172.93C167.03 188.27 167.81 205.03 165.42 219.33Z" fill="url(#paint37_linear)"/>
<path d="M91.48 209.83C94.55 188.33 111.79 173.76 130.94 175.57C151.59 177.51 162.69 197.22 162.39 214.13C162.09 231.04 149.73 244.25 127.58 244.25C105.43 244.25 88.62 229.89 91.48 209.83Z" fill="url(#paint38_linear)"/>
<path d="M91.68 211.61C94.74 190.11 111.98 175.54 131.14 177.35C151.78 179.29 162.88 199 162.58 215.91C162.28 232.82 149.93 246.03 127.77 246.03C105.61 246.03 88.82 231.71 91.68 211.61Z" fill="url(#paint39_radial)"/>
<path style="mix-blend-mode:multiply" opacity="0.5" d="M152.5 147.89C148.12 154.76 124.01 158.76 110.07 157.49C97.94 156.38 99.78 153.11 99.88 152.69C106.41 142.86 115.97 136.44 126.77 136.44C138.03 136.4 146.64 141.02 152.5 147.89Z" fill="url(#paint40_linear)"/>
<path d="M143.93 159.78C142.81 160.15 142.75 169.19 143.93 170.64C145.11 172.09 146.99 171.64 147.61 169.52C148.23 167.4 145.62 159.22 143.93 159.78Z" fill="white"/>
<path d="M146 173.05C145.06 173.27 145 175.51 145.39 176.3C145.541 176.479 145.736 176.617 145.956 176.7C146.175 176.783 146.412 176.809 146.645 176.775C146.877 176.741 147.097 176.648 147.283 176.506C147.469 176.363 147.616 176.175 147.71 175.96C147.97 175.01 146.94 172.83 146 173.05Z" fill="white"/>
<path style="mix-blend-mode:screen" opacity="0.72" d="M103.8 233.5C103.8 233.5 108.8 242.12 127.18 242.19C145.56 242.26 153.1 231.28 153.1 231.28C153.1 231.28 144.6 236.83 132.44 233.5C120.28 230.17 108.26 228.3 103.8 233.5Z" fill="url(#paint41_linear)"/>
<path d="M174.19 33.54C172.55 34.42 172.68 36.2 176.09 35.76C179.5 35.32 181.35 32.64 180.98 32.12C180.61 31.6 176.04 32.54 174.19 33.54Z" fill="white"/>
<path d="M142.54 27C140.54 27.46 157.1 36.2 157.76 35.16C158.42 34.12 147.99 25.74 142.54 27Z" fill="white"/>
<path d="M67.32 109.77C67.12 110.86 90.8 111.12 91.32 106.93C91.84 102.74 68.88 101.31 67.32 109.77Z" fill="url(#paint42_linear)"/>
<path style="mix-blend-mode:screen" opacity="0.2" d="M73.14 93.09C72.5642 88.0558 72.6247 82.9691 73.32 77.95C74.45 69.27 76.78 63.67 78.17 64.45C79.56 65.23 79.34 73.74 80.17 82.11C80.81 88.63 82.06 94.74 82.06 94.74C82.06 94.74 76.06 100.47 73.14 93.09Z" fill="url(#paint43_linear)"/>
<path style="mix-blend-mode:screen" opacity="0.72" d="M99 197.96C102.64 203.77 117.62 200.68 134.5 202.33C151.38 203.98 154.25 209.46 157.81 208.33C161.37 207.2 155.75 181.81 130.53 180.09C105.31 178.37 98.09 196.52 99 197.96Z" fill="url(#paint44_linear)"/>
<path d="M215.21 1.71C215.21 1.71 215.07 35.25 217.61 51.49L243.61 61.72L239.42 54.45L264.64 51.59C264.64 51.59 267.31 13.87 268.2 1.71C268.2 1.71 248.32 -2.11 215.21 1.71Z" fill="url(#paint45_linear)"/>
<path d="M234.27 16.71C234.17 18.67 234.083 20.6167 234.01 22.55C233.94 24.47 233.89 26.41 233.86 28.35C234.11 28.35 234.36 28.35 234.62 28.35H235.42H236.42H237.42C237.42 27.91 237.42 27.49 237.42 27.06V25.76C237.42 24.26 237.42 22.76 237.42 21.26C237.42 19.76 237.34 18.26 237.27 16.74H240.93C240.75 19.1333 240.613 21.5033 240.52 23.85C240.42 26.21 240.38 28.58 240.38 30.97C240.38 32.14 240.38 33.3 240.38 34.46C240.38 35.62 240.45 36.79 240.5 37.97H237.11C237.16 36.79 237.2 35.61 237.24 34.44L237.36 30.94L235.68 30.85C235.12 30.85 234.56 30.85 234 30.85H233.88V35.89C233.88 36.5567 233.88 37.2233 233.88 37.89H230.42C230.42 36.46 230.5 35.05 230.52 33.66C230.54 32.27 230.52 30.87 230.52 29.46C230.52 25.2 230.43 20.9333 230.25 16.66L234.27 16.71Z" fill="white"/>
<path d="M248.48 37.89H247.29H246.1C245.44 37.89 244.79 37.89 244.1 37.89C243.41 37.89 242.79 37.95 242.1 38V34.8L242.79 34.87H243.47C243.53 33.33 243.59 31.81 243.64 30.28C243.69 28.75 243.72 27.28 243.72 25.71C243.72 24.71 243.72 23.71 243.72 22.71L243.63 19.71H242.84L242.02 19.76V16.65C242.79 16.7 243.55 16.74 244.31 16.76C245.07 16.78 245.84 16.76 246.62 16.76H247.45H248.3L248.21 19.76H247.53H246.86C246.72 21.54 246.62 23.31 246.56 25.07C246.5 26.83 246.47 28.6 246.47 30.39C246.47 31.9367 246.5 33.4867 246.56 35.04H247.56H248.56L248.48 37.89Z" fill="white"/>
<path d="M253.29 36.81C253.295 37.0411 253.247 37.2702 253.15 37.48C253.06 37.6806 252.934 37.8634 252.78 38.02C252.621 38.1737 252.434 38.2958 252.23 38.38C252.015 38.4724 251.784 38.52 251.55 38.52C251.323 38.5199 251.098 38.4722 250.89 38.38C250.692 38.2902 250.509 38.1686 250.35 38.02C250.189 37.8619 250.062 37.6736 249.974 37.4659C249.887 37.2582 249.841 37.0353 249.84 36.81C249.839 36.5825 249.887 36.3575 249.98 36.15C250.066 35.9444 250.192 35.7576 250.35 35.6C250.506 35.4445 250.689 35.3191 250.89 35.23C251.098 35.141 251.323 35.0967 251.55 35.1C251.783 35.0968 252.014 35.141 252.23 35.23C252.437 35.3141 252.624 35.4401 252.78 35.6C252.935 35.7602 253.06 35.9464 253.15 36.15C253.248 36.3559 253.296 36.582 253.29 36.81V36.81ZM253.56 16.5C253.28 19.2533 253.063 22.0233 252.91 24.81C252.757 27.5967 252.66 30.3467 252.62 33.06L250.62 33.12C250.55 30.4 250.46 27.63 250.34 24.83C250.22 22.03 250.1 19.26 249.95 16.53L253.56 16.5Z" fill="white"/>
<path style="mix-blend-mode:screen" opacity="0.72" d="M60.58 45.31C60.58 45.31 62.24 43.44 65.94 44.05C69.64 44.66 71.79 52.26 73.69 51.5C75.59 50.74 74.19 38.4 69.18 34.78C69.18 34.78 62.72 40.3 60.58 45.31Z" fill="url(#paint46_linear)"/>
<path d="M55.55 63.26C55.55 63.26 42.42 78 43.23 79.05C44.04 80.1 56.34 64.79 55.55 63.26Z" fill="url(#paint47_linear)"/>
<path d="M202.64 105.89C199.5 106.72 199.82 127.54 203.82 129.62C207.82 131.7 214.5 123.39 214.5 123.39C214.5 123.39 213.76 102.89 202.64 105.89Z" fill="url(#paint48_linear)"/>
<path style="mix-blend-mode:screen" opacity="0.72" d="M192.77 40.63C192.77 40.63 189.64 36.74 185.36 37.77C181.08 38.8 180.8 52.29 183.36 52.62C185.92 52.95 187 45.17 188.96 43.94C190.92 42.71 194.35 43.19 194.35 43.19L192.77 40.63Z" fill="url(#paint49_linear)"/>
<path d="M214.5 123.35C196.99 158.06 166.11 169.89 166.11 169.89C157.62 164.39 150.22 146.45 153.11 142.95C153.253 142.779 153.43 142.639 153.63 142.54C191.31 124.54 202.63 105.82 202.63 105.82C204.707 105.931 206.712 106.622 208.417 107.813C210.122 109.004 211.46 110.648 212.28 112.56C213.798 115.952 214.556 119.634 214.5 123.35Z" fill="url(#paint50_linear)"/>
<path style="mix-blend-mode:multiply" opacity="0.3" d="M214.5 123.35C196.99 158.06 166.11 169.89 166.11 169.89C157.62 164.39 150.22 146.45 153.11 142.95C153.274 142.802 153.448 142.665 153.63 142.54C153.63 142.54 159.15 162.78 175.29 157.17C194.45 150.51 202.29 117.17 202.29 117.17V107.41L212.23 112.52C213.771 115.92 214.546 119.617 214.5 123.35Z" fill="url(#paint51_linear)"/>
<path d="M201.52 111.72C201.52 111.72 201.37 122.72 207.6 124.48C213.83 126.24 221.6 114.62 224.51 109.8C227.42 104.98 231.78 83.24 227.62 78.05C223.46 72.86 215.46 74.19 210.12 81.46C210.12 81.46 201.81 102.38 201.52 111.72Z" fill="url(#paint52_linear)"/>
<path d="M201.85 108.46C201.85 108.46 209.08 102.97 210.71 94.51C212.34 86.05 221.1 74.89 221.1 74.89C221.1 74.89 216.5 74.47 210.1 81.44C203.7 88.41 201.85 108.46 201.85 108.46Z" fill="url(#paint53_linear)"/>
<path style="mix-blend-mode:multiply" opacity="0.5" d="M208.98 82.89L214.5 84.97C213.032 87.5044 211.877 90.2075 211.06 93.02C210.06 96.96 206.32 102.33 206.32 102.33L208.98 82.89Z" fill="url(#paint54_linear)"/>
<path d="M201.85 106.38C201.85 106.38 199.96 102.23 199.7 94.22C199.44 86.21 201.34 79.9 202.23 78.79C203.12 77.68 206.23 77.79 207.72 79.61C209.21 81.43 210.27 90.19 210.27 90.19C210.27 90.19 208.27 104.45 201.85 106.38Z" fill="url(#paint55_linear)"/>
<path d="M210.71 94.51C210.71 94.51 214.43 106.75 223.36 111.65L224.51 109.8C218.229 105.931 213.477 100.01 211.06 93.04L210.71 94.51Z" fill="url(#paint56_linear)"/>
<path d="M204.19 84.78C203.3 84.68 203.6 92.56 204.71 92.23C205.82 91.9 205.42 84.89 204.19 84.78Z" fill="white"/>
</g>
<defs>
<radialGradient id="paint0_radial" cx="0" cy="0" r="1" gradientUnits="userSpaceOnUse" gradientTransform="translate(132.98 299.334) scale(58.1 12.782)">
<stop stop-color="#BE9DEA"/>
<stop offset="0.39" stop-color="#E0BFF5"/>
<stop offset="1" stop-color="white"/>
</radialGradient>
<linearGradient id="paint1_linear" x1="248.34" y1="62.06" x2="252.7" y2="0.61" gradientUnits="userSpaceOnUse">
<stop stop-color="#A242EA"/>
<stop offset="1" stop-color="#FE117E"/>
</linearGradient>
<linearGradient id="paint2_linear" x1="99.93" y1="279.65" x2="106.16" y2="229.97" gradientUnits="userSpaceOnUse">
<stop stop-color="#CBC1F7"/>
<stop offset="1" stop-color="#E8DCF7"/>
</linearGradient>
<linearGradient id="paint3_linear" x1="6222.76" y1="20753" x2="7133.23" y2="16851.3" gradientUnits="userSpaceOnUse">
<stop stop-color="#CBC1F7"/>
<stop offset="1" stop-color="#E8DCF7"/>
</linearGradient>
<linearGradient id="paint4_linear" x1="105.05" y1="247.42" x2="105.05" y2="227.84" gradientUnits="userSpaceOnUse">
<stop stop-color="#BE9DEA"/>
<stop offset="1" stop-color="#9E8CEF"/>
</linearGradient>
<linearGradient id="paint5_linear" x1="6389.93" y1="6885.51" x2="6389.93" y2="6343.05" gradientUnits="userSpaceOnUse">
<stop stop-color="#BE9DEA"/>
<stop offset="1" stop-color="#9E8CEF"/>
</linearGradient>
<linearGradient id="paint6_linear" x1="105.1" y1="280.29" x2="105.1" y2="228" gradientUnits="userSpaceOnUse">
<stop stop-color="#9D68C2"/>
<stop offset="1" stop-color="#CCEDFF"/>
</linearGradient>
<linearGradient id="paint7_linear" x1="6427.33" y1="19861.2" x2="6427.33" y2="16170.9" gradientUnits="userSpaceOnUse">
<stop stop-color="#9D68C2"/>
<stop offset="1" stop-color="#CCEDFF"/>
</linearGradient>
<linearGradient id="paint8_linear" x1="4624.75" y1="22634.2" x2="6238.92" y2="15840.4" gradientUnits="userSpaceOnUse">
<stop stop-color="#CBC1F7"/>
<stop offset="1" stop-color="#E8DCF7"/>
</linearGradient>
<linearGradient id="paint9_linear" x1="2225.35" y1="3914.41" x2="2225.35" y2="3729.33" gradientUnits="userSpaceOnUse">
<stop stop-color="#BE9DEA"/>
<stop offset="1" stop-color="#9E8CEF"/>
</linearGradient>
<linearGradient id="paint10_linear" x1="4815.98" y1="19656" x2="4815.98" y2="14476.4" gradientUnits="userSpaceOnUse">
<stop stop-color="#9D68C2"/>
<stop offset="1" stop-color="#CCEDFF"/>
</linearGradient>
<linearGradient id="paint11_linear" x1="2289.35" y1="14694" x2="2813.46" y2="12604.5" gradientUnits="userSpaceOnUse">
<stop stop-color="#CBC1F7"/>
<stop offset="1" stop-color="#E8DCF7"/>
</linearGradient>
<linearGradient id="paint12_linear" x1="1298.35" y1="13105.4" x2="1298.35" y2="11363.2" gradientUnits="userSpaceOnUse">
<stop stop-color="#BE9DEA"/>
<stop offset="1" stop-color="#9E8CEF"/>
</linearGradient>
<linearGradient id="paint13_linear" x1="69.4" y1="257.47" x2="69.4" y2="241.33" gradientUnits="userSpaceOnUse">
<stop stop-color="#8DA4E5"/>
<stop offset="1" stop-color="#755CBB"/>
</linearGradient>
<linearGradient id="paint14_linear" x1="1323.12" y1="8418.83" x2="1529.56" y2="7709.8" gradientUnits="userSpaceOnUse">
<stop stop-color="#CBC1F7"/>
<stop offset="1" stop-color="#E8DCF7"/>
</linearGradient>
<linearGradient id="paint15_linear" x1="77.28" y1="79.14" x2="77.28" y2="29.75" gradientUnits="userSpaceOnUse">
<stop stop-color="#B9ACF4"/>
<stop offset="1" stop-color="#E1D1F5"/>
</linearGradient>
<linearGradient id="paint16_linear" x1="1459.61" y1="3059.41" x2="1459.61" y2="2115.08" gradientUnits="userSpaceOnUse">
<stop stop-color="#BE9DEA"/>
<stop offset="1" stop-color="#9E8CEF"/>
</linearGradient>
<linearGradient id="paint17_linear" x1="6182.8" y1="5820.75" x2="6182.8" y2="3381.38" gradientUnits="userSpaceOnUse">
<stop stop-color="#B9ACF4"/>
<stop offset="1" stop-color="#E1D1F5"/>
</linearGradient>
<linearGradient id="paint18_linear" x1="3075.47" y1="2573.06" x2="3075.47" y2="1851.77" gradientUnits="userSpaceOnUse">
<stop stop-color="#BE9DEA"/>
<stop offset="1" stop-color="#9E8CEF"/>
</linearGradient>
<linearGradient id="paint19_linear" x1="188.98" y1="81.51" x2="188.98" y2="32.97" gradientUnits="userSpaceOnUse">
<stop stop-color="#008CFF"/>
<stop offset="1" stop-color="#22E0FF"/>
</linearGradient>
<linearGradient id="paint20_linear" x1="-1549.71" y1="5839.33" x2="-1549.71" y2="3483.19" gradientUnits="userSpaceOnUse">
<stop stop-color="#008CFF"/>
<stop offset="1" stop-color="#22E0FF"/>
</linearGradient>
<linearGradient id="paint21_linear" x1="21619" y1="23435" x2="23415.1" y2="7766.57" gradientUnits="userSpaceOnUse">
<stop stop-color="#CBC1F7"/>
<stop offset="1" stop-color="#E8DCF7"/>
</linearGradient>
<linearGradient id="paint22_linear" x1="128.02" y1="114.93" x2="128.02" y2="27.44" gradientUnits="userSpaceOnUse">
<stop stop-color="#0665BD"/>
<stop offset="1" stop-color="#1A1F77"/>
</linearGradient>
<linearGradient id="paint23_linear" x1="22377.4" y1="13946.9" x2="22377.4" y2="8392.63" gradientUnits="userSpaceOnUse">
<stop stop-color="#9D68C2"/>
<stop offset="1" stop-color="#CCEDFF"/>
</linearGradient>
<linearGradient id="paint24_linear" x1="78.22" y1="138.36" x2="175.34" y2="138.36" gradientUnits="userSpaceOnUse">
<stop stop-color="#8879EA"/>
<stop offset="1" stop-color="#9E8CEF"/>
</linearGradient>
<linearGradient id="paint25_linear" x1="15685.7" y1="2653.89" x2="15685.7" y2="2458.36" gradientUnits="userSpaceOnUse">
<stop stop-color="#8DA4E5"/>
<stop offset="1" stop-color="#755CBB"/>
</linearGradient>
<linearGradient id="paint26_linear" x1="126.39" y1="140.71" x2="128.22" y2="126.2" gradientUnits="userSpaceOnUse">
<stop stop-color="#5E36CC"/>
<stop offset="1" stop-color="#6C4A96"/>
</linearGradient>
<linearGradient id="paint27_linear" x1="12352.6" y1="31263" x2="14416.9" y2="19530.2" gradientUnits="userSpaceOnUse">
<stop stop-color="#CBC1F7"/>
<stop offset="1" stop-color="#E8DCF7"/>
</linearGradient>
<linearGradient id="paint28_linear" x1="2553.57" y1="6264.91" x2="2720.49" y2="6264.91" gradientUnits="userSpaceOnUse">
<stop stop-color="#8879EA"/>
<stop offset="1" stop-color="#9E8CEF"/>
</linearGradient>
<linearGradient id="paint29_linear" x1="3678.27" y1="3427.29" x2="3678.27" y2="3041.63" gradientUnits="userSpaceOnUse">
<stop stop-color="#8DA4E5"/>
<stop offset="1" stop-color="#755CBB"/>
</linearGradient>
<linearGradient id="paint30_linear" x1="154.83" y1="70.97" x2="154.83" y2="49.99" gradientUnits="userSpaceOnUse">
<stop stop-color="#45FFCD"/>
<stop offset="1" stop-color="#22E0FF"/>
</linearGradient>
<linearGradient id="paint31_linear" x1="-3432.95" y1="2336.3" x2="-3432.95" y2="1896.56" gradientUnits="userSpaceOnUse">
<stop stop-color="#45FFCD"/>
<stop offset="1" stop-color="#22E0FF"/>
</linearGradient>
<linearGradient id="paint32_linear" x1="3700.77" y1="8902.75" x2="4229.25" y2="5691.25" gradientUnits="userSpaceOnUse">
<stop stop-color="#BE9DEA"/>
<stop offset="1" stop-color="#9E8CEF"/>
</linearGradient>
<linearGradient id="paint33_linear" x1="77.8334" y1="117.819" x2="81.5502" y2="102.144" gradientUnits="userSpaceOnUse">
<stop stop-color="#DD1A8F"/>
<stop offset="1" stop-color="#FE117E"/>
</linearGradient>
<linearGradient id="paint34_linear" x1="85.54" y1="48.02" x2="175.05" y2="48.02" gradientUnits="userSpaceOnUse">
<stop/>
<stop offset="1" stop-color="#6A9BFF"/>
</linearGradient>
<linearGradient id="paint35_linear" x1="8544.3" y1="1820.8" x2="12589.9" y2="1820.8" gradientUnits="userSpaceOnUse">
<stop/>
<stop offset="1" stop-color="#6A9BFF"/>
</linearGradient>
<linearGradient id="paint36_linear" x1="338.773" y1="304.97" x2="338.773" y2="300.93" gradientUnits="userSpaceOnUse">
<stop stop-color="#9D68C2"/>
<stop offset="1" stop-color="#CCEDFF"/>
</linearGradient>
<linearGradient id="paint37_linear" x1="12787.5" y1="24983.1" x2="12787.5" y2="17347.8" gradientUnits="userSpaceOnUse">
<stop stop-color="#9D68C2"/>
<stop offset="1" stop-color="#CCEDFF"/>
</linearGradient>
<linearGradient id="paint38_linear" x1="11585.4" y1="19610.7" x2="11585.4" y2="14872.3" gradientUnits="userSpaceOnUse">
<stop stop-color="#BE9DEA"/>
<stop offset="1" stop-color="#9E8CEF"/>
</linearGradient>
<radialGradient id="paint39_radial" cx="0" cy="0" r="1" gradientUnits="userSpaceOnUse" gradientTransform="translate(11682.3 18999.9) scale(3741.39 3615.73)">
<stop stop-color="#008CFF"/>
<stop offset="1" stop-color="#22E0FF"/>
</radialGradient>
<linearGradient id="paint40_linear" x1="8580.27" y1="4304.1" x2="8580.27" y2="3850.74" gradientUnits="userSpaceOnUse">
<stop stop-color="#8DA4E5"/>
<stop offset="1" stop-color="#755CBB"/>
</linearGradient>
<linearGradient id="paint41_linear" x1="128.45" y1="242.19" x2="128.45" y2="230.26" gradientUnits="userSpaceOnUse">
<stop stop-color="#D4E2FF"/>
<stop offset="1"/>
</linearGradient>
<linearGradient id="paint42_linear" x1="79.34" y1="110.45" x2="79.34" y2="103.6" gradientUnits="userSpaceOnUse">
<stop stop-color="#D93DE3"/>
<stop offset="1" stop-color="#FF6DBA"/>
</linearGradient>
<linearGradient id="paint43_linear" x1="76.9065" y1="96.8228" x2="79.1249" y2="64.4487" gradientUnits="userSpaceOnUse">
<stop/>
<stop offset="1" stop-color="#00E3FF"/>
</linearGradient>
<linearGradient id="paint44_linear" x1="98.93" y1="194.25" x2="158.78" y2="194.25" gradientUnits="userSpaceOnUse">
<stop/>
<stop offset="1" stop-color="#D4E2FF"/>
</linearGradient>
<linearGradient id="paint45_linear" x1="14632" y1="6133.77" x2="14946.9" y2="2319.61" gradientUnits="userSpaceOnUse">
<stop stop-color="#D93DE3"/>
<stop offset="1" stop-color="#FF6DBA"/>
</linearGradient>
<linearGradient id="paint46_linear" x1="1385.51" y1="1398.12" x2="1579.32" y2="1398.12" gradientUnits="userSpaceOnUse">
<stop stop-color="#D4E2FF"/>
<stop offset="1"/>
</linearGradient>
<linearGradient id="paint47_linear" x1="1037.3" y1="1941.85" x2="1042.38" y2="1687.75" gradientUnits="userSpaceOnUse">
<stop stop-color="#CBC1F7"/>
<stop offset="1" stop-color="#E8DCF7"/>
</linearGradient>
<linearGradient id="paint48_linear" x1="3584.23" y1="4199.23" x2="3584.23" y2="3605.72" gradientUnits="userSpaceOnUse">
<stop stop-color="#BE9DEA"/>
<stop offset="1" stop-color="#9E8CEF"/>
</linearGradient>
<linearGradient id="paint49_linear" x1="2912.93" y1="1288.86" x2="3072.41" y2="1288.86" gradientUnits="userSpaceOnUse">
<stop/>
<stop offset="1" stop-color="#D4E2FF"/>
</linearGradient>
<linearGradient id="paint50_linear" x1="13389" y1="13536.8" x2="13950.3" y2="9208.89" gradientUnits="userSpaceOnUse">
<stop stop-color="#CBC1F7"/>
<stop offset="1" stop-color="#E8DCF7"/>
</linearGradient>
<linearGradient id="paint51_linear" x1="13679.7" y1="13105.7" x2="13679.7" y2="9203.25" gradientUnits="userSpaceOnUse">
<stop stop-color="#9D68C2"/>
<stop offset="1" stop-color="#CCEDFF"/>
</linearGradient>
<linearGradient id="paint52_linear" x1="7067.56" y1="8194.94" x2="7613.91" y2="5761.29" gradientUnits="userSpaceOnUse">
<stop stop-color="#CBC1F7"/>
<stop offset="1" stop-color="#E8DCF7"/>
</linearGradient>
<linearGradient id="paint53_linear" x1="4938.51" y1="4995.95" x2="4938.51" y2="3869.52" gradientUnits="userSpaceOnUse">
<stop stop-color="#BE9DEA"/>
<stop offset="1" stop-color="#9E8CEF"/>
</linearGradient>
<linearGradient id="paint54_linear" x1="2210.34" y1="2813.43" x2="2210.34" y2="2435.52" gradientUnits="userSpaceOnUse">
<stop stop-color="#8DA4E5"/>
<stop offset="1" stop-color="#755CBB"/>
</linearGradient>
<linearGradient id="paint55_linear" x1="2715.59" y1="4171.78" x2="2960.02" y2="3443.56" gradientUnits="userSpaceOnUse">
<stop stop-color="#CBC1F7"/>
<stop offset="1" stop-color="#E8DCF7"/>
</linearGradient>
<linearGradient id="paint56_linear" x1="3690.93" y1="2880.07" x2="3690.93" y2="2533.74" gradientUnits="userSpaceOnUse">
<stop stop-color="#BE9DEA"/>
<stop offset="1" stop-color="#9E8CEF"/>
</linearGradient>
<clipPath id="clip0">
<rect width="272.36" height="313.12" fill="white"/>
</clipPath>
</defs>
</svg>
